<?xml version="1.0" encoding="utf-8"?>
<svg width="16" height="16" viewBox="0 0 16 16" fill="none" xmlns="http://www.w3.org/2000/svg">
  <g>
    <g transform="translate(2 0)">
      <g>
        <g>
          <g>
            <path d="M0 0.0664444C0 0.0664444 1.72973 0.0664444 1.72973 0.0664444C2.08409 0.0664444 2.38176 0.136054 2.62276 0.275272C2.86375 0.414491 3.04618 0.605125 3.17005 0.847175C3.29393 1.08923 3.35586 1.3653 3.35586 1.67537C3.35586 1.98703 3.29356 2.26389 3.16893 2.50593C3.0443 2.74799 2.86036 2.93822 2.61712 3.07665C2.37388 3.21507 2.07434 3.28429 1.71847 3.28429C1.71847 3.28429 0.835589 3.28429 0.835589 3.28429C0.835589 3.28429 0.835589 4.92644 0.835589 4.92644C0.835589 4.92644 0 4.92644 0 4.92644C0 4.92644 0 0.0664444 0 0.0664444ZM1.60586 2.56051C1.91668 2.56051 2.14415 2.47746 2.28829 2.31134C2.43244 2.14523 2.50451 1.93324 2.50451 1.67537C2.50451 1.41592 2.43244 1.20551 2.28829 1.04414C2.14415 0.882768 1.91517 0.802086 1.60136 0.802086C1.60136 0.802086 0.835588 0.802086 0.835588 0.802086C0.835588 0.802086 0.835588 2.56051 0.835588 2.56051C0.835588 2.56051 1.60586 2.56051 1.60586 2.56051ZM6.58786 1.40247C6.56684 1.19522 6.479 1.03386 6.32434 0.918367C6.16969 0.80288 5.96773 0.745135 5.71849 0.745135C5.45723 0.745135 5.25302 0.804856 5.10588 0.9243C4.95872 1.04374 4.8844 1.19522 4.8829 1.37874C4.88139 1.5132 4.91969 1.62434 4.99776 1.71215C5.07585 1.79996 5.17532 1.86996 5.29619 1.92216C5.41706 1.97438 5.54056 2.0163 5.66669 2.04794C5.66669 2.04794 6.09912 2.16184 6.09912 2.16184C6.33035 2.21879 6.5492 2.30304 6.75565 2.41457C6.96211 2.5261 7.13028 2.67481 7.26016 2.8607C7.39004 3.04659 7.45498 3.28033 7.45498 3.56194C7.45348 3.99066 7.29958 4.33753 6.99327 4.60251C6.68696 4.8675 6.25753 5 5.70498 5C5.16744 5 4.73875 4.86908 4.41893 4.60726C4.09911 4.34543 3.93094 3.97326 3.91443 3.49075C3.91443 3.49075 4.73651 3.49075 4.73651 3.49075C4.75302 3.74545 4.85212 3.93529 5.0338 4.06027C5.21548 4.18525 5.43695 4.24775 5.69822 4.24775C5.97149 4.24775 6.19296 4.18406 6.36263 4.05672C6.53231 3.92936 6.61789 3.76206 6.61939 3.55481C6.61789 3.36655 6.54169 3.22377 6.39078 3.12648C6.23989 3.02918 6.03981 2.94731 5.79056 2.88087C5.79056 2.88087 5.26579 2.73849 5.26579 2.73849C4.8859 2.63566 4.58597 2.47943 4.36601 2.26981C4.14604 2.06019 4.03605 1.78137 4.03605 1.43331C4.03605 1.14697 4.10963 0.896218 4.25677 0.681063C4.40392 0.465907 4.6055 0.298607 4.86151 0.179164C5.11751 0.0597219 5.40692 0 5.72975 0C6.05708 0 6.34462 0.0597219 6.59237 0.179164C6.84012 0.298608 7.03419 0.463929 7.17458 0.675131C7.31497 0.886332 7.38741 1.12878 7.39191 1.40247C7.39191 1.40247 6.58786 1.40247 6.58786 1.40247ZM8.19821 4.92644C8.19821 4.92644 8.19821 0.0664444 8.19821 0.0664444C8.19821 0.0664444 9.79281 0.0664444 9.79281 0.0664444C10.2508 0.0664444 10.6445 0.163343 10.9741 0.357142C11.3037 0.55094 11.5571 0.828981 11.7343 1.19127C11.9115 1.55356 12 1.98703 12 2.4917C12 2.99795 11.9111 3.433 11.7331 3.79687C11.5552 4.16074 11.2992 4.43996 10.9651 4.63455C10.631 4.82914 10.2298 4.92644 9.76128 4.92644C9.76128 4.92644 9.76128 4.92644 9.76128 4.92644C9.76128 4.92644 8.19821 4.92644 8.19821 4.92644ZM9.72075 4.16469C10.6877 4.16469 11.1712 3.60703 11.1712 2.49169C11.1712 1.38269 10.696 0.828194 9.74553 0.828194C9.74553 0.828194 9.03381 0.828194 9.03381 0.828194C9.03381 0.828194 9.03381 4.16469 9.03381 4.16469C9.03381 4.16469 9.72075 4.16469 9.72075 4.16469Z" fill="#000000" transform="translate(0.161 11)" />
            <rect width="12.034" height="8.424" fill="#000000" fill-rule="evenodd" />
            <path d="M0 1.20339C0 0.538778 0.538778 0 1.2034 0C1.86801 0 2.40679 0.538778 2.40679 1.20339C2.40679 1.86801 1.86801 2.40679 1.2034 2.40679C0.538778 2.40679 0 1.86801 0 1.20339Z" fill="#FFFFFF" fill-rule="evenodd" transform="translate(8.825 1.802)" />
            <path d="M0 4.81357C0 4.81357 3.40961 0 3.40961 0C3.40961 0 6.81921 4.81357 6.81921 4.81357C6.81921 4.81357 0 4.81357 0 4.81357Z" fill="#FFFFFF" fill-rule="evenodd" transform="translate(1.203 3.407)" />
            <path d="M0 3.20905C0 3.20905 2.60736 0 2.60736 0C2.60736 0 5.21471 3.20905 5.21471 3.20905C5.21471 3.20905 0 3.20905 0 3.20905Z" fill="#FFFFFF" fill-rule="evenodd" transform="translate(5.616 5.011)" />
          </g>
        </g>
      </g>
    </g>
  </g>
</svg>