<?xml version="1.0" encoding="utf-8"?>
<svg width="16" height="16" viewBox="0 0 16 16" fill="none" xmlns="http://www.w3.org/2000/svg">
  <g>
    <path d="M1.49179 0.137906C1.17971 -0.0530242 0.800376 -0.0452837 0.493678 0.158547C0.188324 0.361088 0 0.730048 0 1.12868C0 1.12868 0 10.8713 0 10.8713C0 11.2699 0.188324 11.6389 0.493678 11.8414C0.800376 12.0453 1.17971 12.053 1.49179 11.8621C3.57143 10.5939 7.3258 8.30147 9.47403 6.99076C9.79822 6.79338 9.99999 6.41281 9.99999 5.99998C9.99999 5.58716 9.79822 5.20659 9.47403 5.00921C7.3258 3.6985 3.57143 1.40604 1.49179 0.137906Z" fill="#000000" transform="translate(3 2)" />
  </g>
</svg>