<?xml version="1.0" encoding="utf-8"?>
<svg width="16" height="16" viewBox="0 0 16 16" fill="none" xmlns="http://www.w3.org/2000/svg">
  <g>
    <g transform="translate(3 0)">
      <path d="M4.571 0C2.362 0 0 1.791 0 4C0 6.209 2.362 8 4.571 8C4.94 8 5.238 7.702 5.238 7.333C5.238 7.16 5.171 7.004 5.064 6.884C4.962 6.769 4.895 6.613 4.895 6.444C4.895 6.076 5.193 5.778 5.562 5.778C5.562 5.778 6.349 5.778 6.349 5.778C7.575 5.778 9.142 4.782 9.142 3.556C9.142 1.591 6.78 0 4.571 0ZM2.583 7.024C2.023 7.024 1.571 6.572 1.571 6.012C1.571 5.452 2.023 5 2.583 5C3.143 5 3.595 5.452 3.595 6.012C3.595 6.572 3.143 7.024 2.583 7.024ZM6.57 5C6.017 5 5.571 4.554 5.571 4.001C5.571 3.448 6.017 3.001 6.57 3.001C7.123 3.001 7.57 3.448 7.57 4.001C7.57 4.554 7.123 5 6.57 5ZM3.595 3.999C3.042 3.999 2.596 3.552 2.596 2.999C2.596 2.446 3.042 2 3.595 2C4.148 2 4.595 2.446 4.595 2.999C4.595 3.552 4.148 3.999 3.595 3.999Z" fill="#000000" fill-rule="evenodd" transform="translate(0.5 0)" />
      <path d="M0 0.759277C0 0.759277 0 0 0 0L3.98926 0L3.98926 0.759277L2.44385 0.759277L2.44385 5L1.54542 5L1.54542 0.759277C1.54542 0.759277 0 0.759277 0 0.759277ZM4.75586 5C4.75586 5 4.75586 0 4.75586 0L5.66162 0L5.66162 4.24073L7.86378 4.24073L7.86378 5C7.86378 5 4.75586 5 4.75586 5ZM8.80127 0C8.80127 0 10.1025 3.93555 10.1025 3.93555L10.1538 3.93555L11.4526 0L12.4487 0L10.686 5L9.56787 5L7.80763 0C7.80763 0 8.80127 0 8.80127 0Z" fill="#000000" transform="translate(0 11)" />
    </g>
  </g>
</svg>